<svg viewBox="0 0 360 680" xmlns="http://www.w3.org/2000/svg">
  <defs>
    <linearGradient id="bg" x1="0" y1="0" x2="0" y2="1"><stop offset="0%" stop-color="#141b24"/><stop offset="100%" stop-color="#0d1117"/></linearGradient>
    <linearGradient id="wf" x1="0" y1="0" x2="1" y2="0">
      <stop offset="0%" stop-color="#1a3a5c"/><stop offset="30%" stop-color="#1a4a3c"/>
      <stop offset="50%" stop-color="#3a6a2c"/><stop offset="65%" stop-color="#8a7a1c"/>
      <stop offset="80%" stop-color="#aa5a1c"/><stop offset="100%" stop-color="#8a2a2a"/>
    </linearGradient>
    <filter id="sh"><feDropShadow dx="0" dy="4" stdDeviation="12" flood-color="#000" flood-opacity="0.4"/></filter>
  </defs>

  <!-- Phone frame -->
  <rect x="15" y="0" width="330" height="680" rx="36" fill="#0a0e14" stroke="rgba(255,255,255,0.1)" stroke-width="2" filter="url(#sh)"/>
  <rect x="120" y="8" width="120" height="24" rx="12" fill="#000"/>

  <!-- Status Bar -->
  <rect x="31" y="44" width="298" height="26" rx="4" fill="rgba(255,255,255,0.03)"/>
  <text x="45" y="62" fill="#8899aa" font-size="9" font-family="sans-serif">☰</text>
  <circle cx="72" cy="57" r="3" fill="#2ecc71"/><text x="80" y="62" fill="#5dade2" font-size="8" font-family="sans-serif">CTRL</text>
  <circle cx="112" cy="57" r="3" fill="#2ecc71"/><text x="120" y="62" fill="#5dade2" font-size="8" font-family="sans-serif">RX</text>
  <circle cx="143" cy="57" r="3" fill="#2ecc71"/><text x="151" y="62" fill="#5dade2" font-size="8" font-family="sans-serif">TX</text>
  <circle cx="174" cy="57" r="3" fill="#2ecc71"/><text x="182" y="62" fill="#5dade2" font-size="8" font-family="sans-serif">FFT</text>
  <text x="230" y="62" fill="#8899aa" font-size="9" font-family="sans-serif" font-weight="600">USB</text>
  <text x="260" y="62" fill="#8899aa" font-size="9" font-family="sans-serif">S5</text>
  <text x="285" y="62" fill="#8899aa" font-size="9" font-family="sans-serif">23ms</text>
  <text x="310" y="62" fill="#f39c12" font-size="10" font-family="sans-serif">⏻</text>

  <!-- Frequency Display -->
  <rect x="31" y="76" width="298" height="36" rx="4" fill="rgba(255,255,255,0.02)"/>
  <text x="65" y="100" fill="#5dade2" font-size="16" font-family="sans-serif">◀</text>
  <text x="180" y="100" text-anchor="middle" fill="#fff" font-size="22" font-weight="700" font-family="monospace">14.074.000</text>
  <text x="305" y="100" fill="#5dade2" font-size="16" font-family="sans-serif">▶</text>

  <!-- Band + Step -->
  <rect x="31" y="118" width="145" height="26" rx="6" fill="rgba(243,156,18,0.06)" stroke="rgba(243,156,18,0.15)" stroke-width="1"/>
  <text x="103" y="137" text-anchor="middle" fill="#f39c12" font-size="10" font-family="sans-serif">20m ▼</text>
  <rect x="184" y="118" width="145" height="26" rx="6" fill="rgba(255,255,255,0.03)" stroke="rgba(255,255,255,0.05)" stroke-width="1"/>
  <text x="256" y="137" text-anchor="middle" fill="#8899aa" font-size="10" font-family="sans-serif">1K ▼</text>

  <line x1="31" y1="152" x2="329" y2="152" stroke="rgba(255,255,255,0.04)" stroke-width="1"/>

  <!-- S-Meter -->
  <rect x="31" y="158" width="298" height="18" rx="3" fill="rgba(255,255,255,0.02)"/>
  <rect x="31" y="158" width="200" height="18" rx="3" fill="rgba(46,204,113,0.15)"/>
  <text x="45" y="171" fill="#2ecc71" font-size="9" font-family="sans-serif" font-weight="600">S-meter S7</text>

  <!-- Waterfall -->
  <rect x="31" y="182" width="298" height="120" rx="4" fill="url(#wf)" opacity="0.7"/>
  <rect x="31" y="182" width="298" height="120" rx="4" fill="none" stroke="rgba(255,255,255,0.06)" stroke-width="1"/>
  <line x1="80" y1="182" x2="80" y2="302" stroke="rgba(255,255,255,0.06)" stroke-width="0.5"/>
  <line x1="130" y1="182" x2="130" y2="302" stroke="rgba(255,255,255,0.06)" stroke-width="0.5"/>
  <line x1="180" y1="182" x2="180" y2="302" stroke="rgba(255,255,255,0.15)" stroke-width="0.5"/>
  <line x1="230" y1="182" x2="230" y2="302" stroke="rgba(255,255,255,0.06)" stroke-width="0.5"/>
  <line x1="280" y1="182" x2="280" y2="302" stroke="rgba(255,255,255,0.06)" stroke-width="0.5"/>
  <text x="50" y="314" fill="#5c6370" font-size="8" font-family="sans-serif">-30k</text>
  <text x="100" y="314" fill="#5c6370" font-size="8" font-family="sans-serif">-20k</text>
  <text x="145" y="314" fill="#5c6370" font-size="8" font-family="sans-serif">-10k</text>
  <text x="168" y="314" fill="#f39c12" font-size="8" font-family="sans-serif">14.074</text>
  <text x="218" y="314" fill="#5c6370" font-size="8" font-family="sans-serif">+10k</text>
  <text x="268" y="314" fill="#5c6370" font-size="8" font-family="sans-serif">+20k</text>
  <text x="310" y="314" fill="#5c6370" font-size="8" font-family="sans-serif">+30k</text>

  <!-- Audio Level -->
  <text x="45" y="336" fill="#8899aa" font-size="10" font-family="sans-serif">🔊</text>
  <rect x="65" y="328" width="230" height="10" rx="5" fill="rgba(255,255,255,0.05)"/>
  <rect x="65" y="328" width="140" height="10" rx="5" fill="rgba(46,204,113,0.3)"/>
  <circle cx="205" cy="333" r="6" fill="#2ecc71"/>
  <text x="315" y="336" fill="#8899aa" font-size="10" font-family="sans-serif">45</text>

  <!-- Gain Sliders -->
  <text x="60" y="360" fill="#8899aa" font-size="9" font-family="sans-serif">AF</text>
  <rect x="78" y="354" width="70" height="6" rx="3" fill="rgba(255,255,255,0.05)"/>
  <rect x="78" y="354" width="42" height="6" rx="3" fill="rgba(93,173,226,0.4)"/>
  <circle cx="120" cy="357" r="5" fill="#5dade2"/>

  <text x="158" y="360" fill="#8899aa" font-size="9" font-family="sans-serif">RF</text>
  <rect x="176" y="354" width="70" height="6" rx="3" fill="rgba(255,255,255,0.05)"/>
  <rect x="176" y="354" width="50" height="6" rx="3" fill="rgba(155,89,182,0.4)"/>
  <circle cx="226" cy="357" r="5" fill="#9b59b6"/>

  <text x="256" y="360" fill="#8899aa" font-size="9" font-family="sans-serif">SQL</text>
  <rect x="280" y="354" width="49" height="6" rx="3" fill="rgba(255,255,255,0.05)"/>
  <rect x="280" y="354" width="20" height="6" rx="3" fill="rgba(230,126,34,0.4)"/>
  <circle cx="300" cy="357" r="5" fill="#e67e22"/>

  <line x1="31" y1="376" x2="329" y2="376" stroke="rgba(255,255,255,0.04)" stroke-width="1"/>

  <!-- Mode + Filter Selectors -->
  <rect x="55" y="385" width="110" height="30" rx="8" fill="rgba(255,255,255,0.03)" stroke="rgba(255,255,255,0.06)" stroke-width="1"/>
  <text x="75" y="405" fill="#5dade2" font-size="12" font-family="sans-serif">◀</text>
  <text x="110" y="405" text-anchor="middle" fill="#f39c12" font-size="13" font-weight="600" font-family="sans-serif">USB</text>
  <text x="145" y="405" fill="#5dade2" font-size="12" font-family="sans-serif">▶</text>

  <rect x="195" y="385" width="110" height="30" rx="8" fill="rgba(255,255,255,0.03)" stroke="rgba(255,255,255,0.06)" stroke-width="1"/>
  <text x="215" y="405" fill="#5dade2" font-size="12" font-family="sans-serif">◀</text>
  <text x="250" y="405" text-anchor="middle" fill="#fff" font-size="13" font-weight="600" font-family="sans-serif">SSB</text>
  <text x="285" y="405" fill="#5dade2" font-size="12" font-family="sans-serif">▶</text>

  <!-- Favorites Grid 3x3 -->
  <rect x="31" y="424" width="90" height="44" rx="6" fill="rgba(243,156,18,0.06)" stroke="rgba(243,156,18,0.15)" stroke-width="1"/>
  <text x="76" y="442" text-anchor="middle" fill="#f39c12" font-size="10" font-weight="600" font-family="sans-serif">20m</text>
  <text x="76" y="458" text-anchor="middle" fill="#fff" font-size="11" font-family="monospace">14.074</text>

  <rect x="135" y="424" width="90" height="44" rx="6" fill="rgba(93,173,226,0.06)" stroke="rgba(93,173,226,0.15)" stroke-width="1"/>
  <text x="180" y="442" text-anchor="middle" fill="#5dade2" font-size="10" font-weight="600" font-family="sans-serif">40m</text>
  <text x="180" y="458" text-anchor="middle" fill="#fff" font-size="11" font-family="monospace">7.074</text>

  <rect x="239" y="424" width="90" height="44" rx="6" fill="rgba(255,255,255,0.02)" stroke="rgba(255,255,255,0.05)" stroke-width="1"/>
  <text x="284" y="447" text-anchor="middle" fill="#5c6370" font-size="11" font-family="sans-serif">---</text>
  <text x="284" y="461" text-anchor="middle" fill="#5c6370" font-size="10" font-family="monospace">--.---</text>

  <rect x="31" y="474" width="90" height="44" rx="6" fill="rgba(255,255,255,0.02)" stroke="rgba(255,255,255,0.05)" stroke-width="1"/>
  <text x="76" y="497" text-anchor="middle" fill="#5c6370" font-size="11" font-family="sans-serif">---</text>
  <text x="76" y="511" text-anchor="middle" fill="#5c6370" font-size="10" font-family="monospace">--.---</text>

  <rect x="135" y="474" width="90" height="44" rx="6" fill="rgba(46,204,113,0.06)" stroke="rgba(46,204,113,0.15)" stroke-width="1"/>
  <text x="180" y="497" text-anchor="middle" fill="#2ecc71" font-size="10" font-weight="600" font-family="sans-serif">10m</text>
  <text x="180" y="511" text-anchor="middle" fill="#fff" font-size="11" font-family="monospace">28.074</text>

  <rect x="239" y="474" width="90" height="44" rx="6" fill="rgba(255,255,255,0.02)" stroke="rgba(255,255,255,0.05)" stroke-width="1"/>
  <text x="284" y="497" text-anchor="middle" fill="#5c6370" font-size="11" font-family="sans-serif">---</text>
  <text x="284" y="511" text-anchor="middle" fill="#5c6370" font-size="10" font-family="monospace">--.---</text>

  <rect x="31" y="524" width="90" height="44" rx="6" fill="rgba(255,255,255,0.02)" stroke="rgba(255,255,255,0.05)" stroke-width="1"/>
  <text x="76" y="547" text-anchor="middle" fill="#5c6370" font-size="11" font-family="sans-serif">---</text>
  <text x="76" y="561" text-anchor="middle" fill="#5c6370" font-size="10" font-family="monospace">--.---</text>

  <rect x="135" y="524" width="90" height="44" rx="6" fill="rgba(255,255,255,0.02)" stroke="rgba(255,255,255,0.05)" stroke-width="1"/>
  <text x="180" y="547" text-anchor="middle" fill="#5c6370" font-size="11" font-family="sans-serif">---</text>
  <text x="180" y="561" text-anchor="middle" fill="#5c6370" font-size="10" font-family="monospace">--.---</text>

  <rect x="239" y="524" width="90" height="44" rx="6" fill="rgba(255,255,255,0.02)" stroke="rgba(255,255,255,0.05)" stroke-width="1"/>
  <text x="284" y="547" text-anchor="middle" fill="#5c6370" font-size="11" font-family="sans-serif">---</text>
  <text x="284" y="561" text-anchor="middle" fill="#5c6370" font-size="10" font-family="monospace">--.---</text>

  <line x1="31" y1="578" x2="329" y2="578" stroke="rgba(255,255,255,0.04)" stroke-width="1"/>

  <!-- PTT Button -->
  <rect x="115" y="588" width="130" height="52" rx="26" fill="rgba(231,76,60,0.15)" stroke="rgba(231,76,60,0.4)" stroke-width="2"/>
  <text x="180" y="622" text-anchor="middle" fill="#e74c3c" font-size="20" font-weight="800" font-family="sans-serif">TX</text>
</svg>
